<svg width="350" height="72" viewBox="0 0 350 72" xmlns="http://www.w3.org/2000/svg">
  <defs>
    <linearGradient id="navPathGrad" x1="0%" y1="100%" x2="100%" y2="0%">
      <stop offset="0%" stop-color="#0EA5A5"/>
      <stop offset="100%" stop-color="#2563EB"/>
    </linearGradient>
  </defs>

  <!-- ICON MARK (exact path data from the master logo, scaled up to fill a 64px box) -->
  <g transform="translate(0.26,-2.81) scale(0.4156)">
    <g stroke="#CBD5E1" stroke-width="3" fill="none" stroke-linecap="round">
      <path d="M20,150 L70,60 L150,90"/>
      <path d="M20,150 L100,140 L150,90"/>
      <path d="M20,150 L40,80 L90,30 L150,90"/>
    </g>
    <path d="M20,150 Q60,40 150,90" stroke="url(#navPathGrad)" stroke-width="7" fill="none" stroke-linecap="round"/>
    <g fill="#CBD5E1">
      <circle cx="70" cy="60" r="4"/>
      <circle cx="100" cy="140" r="4"/>
      <circle cx="40" cy="80" r="4"/>
      <circle cx="90" cy="30" r="4"/>
    </g>
    <circle cx="20" cy="150" r="11" fill="#0F172A"/>
    <circle cx="20" cy="150" r="11" fill="none" stroke="#0EA5A5" stroke-width="2.5"/>
    <circle cx="150" cy="90" r="13" fill="url(#navPathGrad)"/>
    <circle cx="150" cy="90" r="4.5" fill="#FFFFFF"/>
  </g>

  <!-- WORDMARK -->
  <text x="84" y="46" font-family="Manrope, Inter, Arial, 'Helvetica Neue', sans-serif"
        font-size="34" font-weight="700" fill="#0F172A" letter-spacing="0.2">
    One<tspan fill="#2563EB">Path</tspan>Finder
  </text>
</svg>
